<mxfile host="65bd71144e">
    <diagram name="Page-1" id="oualNqmhVdSyiMbCjpdy">
        <mxGraphModel dx="2861" dy="922" grid="1" gridSize="10" guides="1" tooltips="1" connect="1" arrows="1" fold="1" page="1" pageScale="1" pageWidth="850" pageHeight="1100" math="0" shadow="0">
            <root>
                <mxCell id="0"/>
                <mxCell id="1" parent="0"/>
                <mxCell id="vRCCecJixSy_UI1cMsrU-2" style="edgeStyle=orthogonalEdgeStyle;rounded=0;orthogonalLoop=1;jettySize=auto;html=1;entryX=0.5;entryY=0;entryDx=0;entryDy=0;" parent="1" source="msT65zn4vpUbiCjl3Sjb-1" target="msT65zn4vpUbiCjl3Sjb-8" edge="1">
                    <mxGeometry relative="1" as="geometry">
                        <Array as="points">
                            <mxPoint x="40" y="830"/>
                            <mxPoint x="130" y="830"/>
                            <mxPoint x="130" y="620"/>
                            <mxPoint x="40" y="620"/>
                        </Array>
                    </mxGeometry>
                </mxCell>
                <mxCell id="msT65zn4vpUbiCjl3Sjb-1" value="buffer[x][i]" style="rounded=1;whiteSpace=wrap;html=1;" parent="1" vertex="1">
                    <mxGeometry x="-20" y="750" width="120" height="60" as="geometry"/>
                </mxCell>
                <mxCell id="msT65zn4vpUbiCjl3Sjb-6" style="edgeStyle=orthogonalEdgeStyle;rounded=0;orthogonalLoop=1;jettySize=auto;html=1;entryX=0.5;entryY=0;entryDx=0;entryDy=0;" parent="1" source="msT65zn4vpUbiCjl3Sjb-2" target="msT65zn4vpUbiCjl3Sjb-3" edge="1">
                    <mxGeometry relative="1" as="geometry">
                        <Array as="points">
                            <mxPoint x="360" y="860"/>
                            <mxPoint x="445" y="860"/>
                            <mxPoint x="445" y="630"/>
                            <mxPoint x="360" y="630"/>
                        </Array>
                    </mxGeometry>
                </mxCell>
                <mxCell id="msT65zn4vpUbiCjl3Sjb-2" value="gnl" style="rounded=1;whiteSpace=wrap;html=1;" parent="1" vertex="1">
                    <mxGeometry x="300" y="770" width="120" height="60" as="geometry"/>
                </mxCell>
                <mxCell id="msT65zn4vpUbiCjl3Sjb-5" value="" style="edgeStyle=orthogonalEdgeStyle;rounded=0;orthogonalLoop=1;jettySize=auto;html=1;" parent="1" source="msT65zn4vpUbiCjl3Sjb-3" target="msT65zn4vpUbiCjl3Sjb-2" edge="1">
                    <mxGeometry relative="1" as="geometry"/>
                </mxCell>
                <mxCell id="msT65zn4vpUbiCjl3Sjb-3" value="appel successifs" style="rhombus;whiteSpace=wrap;html=1;" parent="1" vertex="1">
                    <mxGeometry x="320" y="650" width="80" height="80" as="geometry"/>
                </mxCell>
                <mxCell id="msT65zn4vpUbiCjl3Sjb-9" value="" style="edgeStyle=orthogonalEdgeStyle;rounded=0;orthogonalLoop=1;jettySize=auto;html=1;" parent="1" source="msT65zn4vpUbiCjl3Sjb-8" target="msT65zn4vpUbiCjl3Sjb-1" edge="1">
                    <mxGeometry relative="1" as="geometry"/>
                </mxCell>
                <mxCell id="msT65zn4vpUbiCjl3Sjb-8" value="Read until" style="rhombus;whiteSpace=wrap;html=1;" parent="1" vertex="1">
                    <mxGeometry y="640" width="80" height="80" as="geometry"/>
                </mxCell>
                <mxCell id="msT65zn4vpUbiCjl3Sjb-13" value="" style="edgeStyle=orthogonalEdgeStyle;rounded=0;orthogonalLoop=1;jettySize=auto;html=1;" parent="1" source="msT65zn4vpUbiCjl3Sjb-11" target="msT65zn4vpUbiCjl3Sjb-12" edge="1">
                    <mxGeometry relative="1" as="geometry"/>
                </mxCell>
                <mxCell id="msT65zn4vpUbiCjl3Sjb-11" value="fd = 3" style="rounded=1;whiteSpace=wrap;html=1;" parent="1" vertex="1">
                    <mxGeometry x="20" y="280" width="120" height="60" as="geometry"/>
                </mxCell>
                <mxCell id="msT65zn4vpUbiCjl3Sjb-16" value="" style="edgeStyle=orthogonalEdgeStyle;rounded=0;orthogonalLoop=1;jettySize=auto;html=1;" parent="1" source="msT65zn4vpUbiCjl3Sjb-12" target="msT65zn4vpUbiCjl3Sjb-14" edge="1">
                    <mxGeometry relative="1" as="geometry"/>
                </mxCell>
                <mxCell id="msT65zn4vpUbiCjl3Sjb-12" value="" style="rounded=1;whiteSpace=wrap;html=1;" parent="1" vertex="1">
                    <mxGeometry x="190" y="280" width="120" height="60" as="geometry"/>
                </mxCell>
                <mxCell id="msT65zn4vpUbiCjl3Sjb-17" value="" style="edgeStyle=orthogonalEdgeStyle;rounded=0;orthogonalLoop=1;jettySize=auto;html=1;" parent="1" source="msT65zn4vpUbiCjl3Sjb-14" target="msT65zn4vpUbiCjl3Sjb-15" edge="1">
                    <mxGeometry relative="1" as="geometry"/>
                </mxCell>
                <mxCell id="msT65zn4vpUbiCjl3Sjb-14" value="" style="rounded=1;whiteSpace=wrap;html=1;" parent="1" vertex="1">
                    <mxGeometry x="360" y="280" width="120" height="60" as="geometry"/>
                </mxCell>
                <mxCell id="msT65zn4vpUbiCjl3Sjb-15" value="" style="rounded=1;whiteSpace=wrap;html=1;" parent="1" vertex="1">
                    <mxGeometry x="520" y="280" width="120" height="60" as="geometry"/>
                </mxCell>
                <mxCell id="msT65zn4vpUbiCjl3Sjb-18" value="" style="edgeStyle=orthogonalEdgeStyle;rounded=0;orthogonalLoop=1;jettySize=auto;html=1;" parent="1" source="msT65zn4vpUbiCjl3Sjb-19" target="msT65zn4vpUbiCjl3Sjb-21" edge="1">
                    <mxGeometry relative="1" as="geometry"/>
                </mxCell>
                <mxCell id="msT65zn4vpUbiCjl3Sjb-19" value="fd = 4" style="rounded=1;whiteSpace=wrap;html=1;" parent="1" vertex="1">
                    <mxGeometry x="30" y="380" width="120" height="60" as="geometry"/>
                </mxCell>
                <mxCell id="msT65zn4vpUbiCjl3Sjb-20" value="" style="edgeStyle=orthogonalEdgeStyle;rounded=0;orthogonalLoop=1;jettySize=auto;html=1;" parent="1" source="msT65zn4vpUbiCjl3Sjb-21" target="msT65zn4vpUbiCjl3Sjb-23" edge="1">
                    <mxGeometry relative="1" as="geometry"/>
                </mxCell>
                <mxCell id="msT65zn4vpUbiCjl3Sjb-21" value="" style="rounded=1;whiteSpace=wrap;html=1;" parent="1" vertex="1">
                    <mxGeometry x="190" y="380" width="120" height="60" as="geometry"/>
                </mxCell>
                <mxCell id="msT65zn4vpUbiCjl3Sjb-23" value="" style="rounded=1;whiteSpace=wrap;html=1;" parent="1" vertex="1">
                    <mxGeometry x="360" y="380" width="120" height="60" as="geometry"/>
                </mxCell>
                <mxCell id="msT65zn4vpUbiCjl3Sjb-32" value="buffer[0][1]" style="text;html=1;align=center;verticalAlign=middle;whiteSpace=wrap;rounded=0;" parent="1" vertex="1">
                    <mxGeometry x="220" y="250" width="60" height="30" as="geometry"/>
                </mxCell>
                <mxCell id="msT65zn4vpUbiCjl3Sjb-33" value="buffer[1][2]" style="text;html=1;align=center;verticalAlign=middle;whiteSpace=wrap;rounded=0;" parent="1" vertex="1">
                    <mxGeometry x="390" y="355" width="60" height="30" as="geometry"/>
                </mxCell>
                <mxCell id="msT65zn4vpUbiCjl3Sjb-34" value="" style="edgeStyle=orthogonalEdgeStyle;rounded=0;orthogonalLoop=1;jettySize=auto;html=1;" parent="1" source="msT65zn4vpUbiCjl3Sjb-35" target="msT65zn4vpUbiCjl3Sjb-37" edge="1">
                    <mxGeometry relative="1" as="geometry"/>
                </mxCell>
                <mxCell id="msT65zn4vpUbiCjl3Sjb-35" value="fd = 5" style="rounded=1;whiteSpace=wrap;html=1;" parent="1" vertex="1">
                    <mxGeometry x="30" y="480" width="120" height="60" as="geometry"/>
                </mxCell>
                <mxCell id="msT65zn4vpUbiCjl3Sjb-37" value="" style="rounded=1;whiteSpace=wrap;html=1;" parent="1" vertex="1">
                    <mxGeometry x="190" y="480" width="120" height="60" as="geometry"/>
                </mxCell>
                <mxCell id="msT65zn4vpUbiCjl3Sjb-41" value="buffer[2][0]" style="text;html=1;align=center;verticalAlign=middle;whiteSpace=wrap;rounded=0;" parent="1" vertex="1">
                    <mxGeometry x="60" y="455" width="60" height="30" as="geometry"/>
                </mxCell>
                <mxCell id="vRCCecJixSy_UI1cMsrU-3" value="Possiblement avec des fd differents" style="text;html=1;align=center;verticalAlign=middle;whiteSpace=wrap;rounded=0;" parent="1" vertex="1">
                    <mxGeometry x="450" y="720" width="110" height="50" as="geometry"/>
                </mxCell>
                <mxCell id="2" value="Static" style="text;html=1;align=center;verticalAlign=middle;resizable=0;points=[];autosize=1;strokeColor=none;fillColor=none;" vertex="1" parent="1">
                    <mxGeometry x="-80" y="765" width="50" height="30" as="geometry"/>
                </mxCell>
                <mxCell id="10" style="edgeStyle=none;html=1;entryX=0;entryY=0.25;entryDx=0;entryDy=0;fontSize=14;exitX=1.004;exitY=0.592;exitDx=0;exitDy=0;exitPerimeter=0;" edge="1" parent="1" source="4" target="5">
                    <mxGeometry relative="1" as="geometry"/>
                </mxCell>
                <mxCell id="14" style="edgeStyle=none;html=1;exitX=1.013;exitY=0.607;exitDx=0;exitDy=0;entryX=0;entryY=0;entryDx=0;entryDy=0;fontSize=14;exitPerimeter=0;" edge="1" parent="1" source="4" target="13">
                    <mxGeometry relative="1" as="geometry"/>
                </mxCell>
                <mxCell id="4" value="&lt;div style=&quot;border-color: rgb(0, 0, 0); color: rgb(204, 204, 204); font-family: &amp;quot;Fira Code&amp;quot;, &amp;quot;Droid Sans Mono&amp;quot;, &amp;quot;monospace&amp;quot;, monospace; font-size: 14px; font-style: normal; font-variant-ligatures: normal; font-variant-caps: normal; font-weight: 400; letter-spacing: normal; orphans: 2; text-align: left; text-indent: 0px; text-transform: none; widows: 2; word-spacing: 0px; -webkit-text-stroke-width: 0px; text-decoration-thickness: initial; text-decoration-style: initial; text-decoration-color: initial;&quot;&gt;&lt;span style=&quot;border-color: rgb(0, 0, 0); color: rgb(86, 156, 214);&quot;&gt;&lt;br class=&quot;Apple-interchange-newline&quot;&gt;typedef&lt;/span&gt;&lt;span style=&quot;border-color: rgb(0, 0, 0); color: rgb(204, 204, 204);&quot;&gt;&lt;span&gt;&amp;nbsp;&lt;/span&gt;&lt;/span&gt;&lt;span style=&quot;border-color: rgb(0, 0, 0); color: rgb(86, 156, 214);&quot;&gt;struct&lt;/span&gt;&lt;span style=&quot;border-color: rgb(0, 0, 0); color: rgb(204, 204, 204);&quot;&gt;&lt;span&gt;&amp;nbsp;&lt;/span&gt;&lt;/span&gt;&lt;span style=&quot;border-color: rgb(0, 0, 0); color: rgb(78, 201, 176);&quot;&gt;s_memory&lt;/span&gt;&lt;span style=&quot;border-color: rgb(0, 0, 0); color: rgb(204, 204, 204);&quot;&gt;&lt;/span&gt;&lt;/div&gt;&lt;div style=&quot;border-color: rgb(0, 0, 0); color: rgb(204, 204, 204); font-family: &amp;quot;Fira Code&amp;quot;, &amp;quot;Droid Sans Mono&amp;quot;, &amp;quot;monospace&amp;quot;, monospace; font-size: 14px; font-style: normal; font-variant-ligatures: normal; font-variant-caps: normal; font-weight: 400; letter-spacing: normal; orphans: 2; text-align: left; text-indent: 0px; text-transform: none; widows: 2; word-spacing: 0px; -webkit-text-stroke-width: 0px; text-decoration-thickness: initial; text-decoration-style: initial; text-decoration-color: initial;&quot;&gt;&lt;span style=&quot;border-color: rgb(0, 0, 0); color: rgb(204, 204, 204);&quot;&gt;{&lt;/span&gt;&lt;/div&gt;&lt;div style=&quot;border-color: rgb(0, 0, 0); color: rgb(204, 204, 204); font-family: &amp;quot;Fira Code&amp;quot;, &amp;quot;Droid Sans Mono&amp;quot;, &amp;quot;monospace&amp;quot;, monospace; font-size: 14px; font-style: normal; font-variant-ligatures: normal; font-variant-caps: normal; font-weight: 400; letter-spacing: normal; orphans: 2; text-align: left; text-indent: 0px; text-transform: none; widows: 2; word-spacing: 0px; -webkit-text-stroke-width: 0px; text-decoration-thickness: initial; text-decoration-style: initial; text-decoration-color: initial;&quot;&gt;&lt;span style=&quot;border-color: rgb(0, 0, 0); color: rgb(204, 204, 204);&quot;&gt;&lt;/span&gt;&lt;span style=&quot;border-color: rgb(0, 0, 0); color: rgb(86, 156, 214);&quot;&gt;&lt;span style=&quot;white-space: pre;&quot;&gt;&#9;&lt;/span&gt;int&lt;/span&gt;&lt;span style=&quot;border-color: rgb(0, 0, 0); color: rgb(204, 204, 204);&quot;&gt;&lt;span&gt;&amp;nbsp;&lt;/span&gt;&lt;/span&gt;&lt;span style=&quot;border-color: rgb(0, 0, 0); color: rgb(156, 220, 254);&quot;&gt;fd&lt;/span&gt;&lt;span style=&quot;border-color: rgb(0, 0, 0); color: rgb(204, 204, 204);&quot;&gt;;&lt;/span&gt;&lt;/div&gt;&lt;div style=&quot;border-color: rgb(0, 0, 0); color: rgb(204, 204, 204); font-family: &amp;quot;Fira Code&amp;quot;, &amp;quot;Droid Sans Mono&amp;quot;, &amp;quot;monospace&amp;quot;, monospace; font-size: 14px; font-style: normal; font-variant-ligatures: normal; font-variant-caps: normal; font-weight: 400; letter-spacing: normal; orphans: 2; text-align: left; text-indent: 0px; text-transform: none; widows: 2; word-spacing: 0px; -webkit-text-stroke-width: 0px; text-decoration-thickness: initial; text-decoration-style: initial; text-decoration-color: initial;&quot;&gt;&lt;span style=&quot;border-color: rgb(0, 0, 0); color: rgb(204, 204, 204);&quot;&gt;&lt;/span&gt;&lt;span style=&quot;border-color: rgb(0, 0, 0); color: rgb(78, 201, 176);&quot;&gt;&lt;span style=&quot;white-space: pre;&quot;&gt;&#9;&lt;/span&gt;t_block&lt;/span&gt;&lt;span style=&quot;border-color: rgb(0, 0, 0); color: rgb(204, 204, 204);&quot;&gt;&lt;span&gt;&amp;nbsp;&lt;/span&gt;&lt;/span&gt;&lt;span style=&quot;border-color: rgb(0, 0, 0); color: rgb(212, 212, 212);&quot;&gt;**&lt;/span&gt;&lt;span style=&quot;border-color: rgb(0, 0, 0); color: rgb(156, 220, 254);&quot;&gt;block&lt;/span&gt;&lt;span style=&quot;border-color: rgb(0, 0, 0); color: rgb(204, 204, 204);&quot;&gt;;&lt;/span&gt;&lt;/div&gt;&lt;div style=&quot;border-color: rgb(0, 0, 0); color: rgb(204, 204, 204); font-family: &amp;quot;Fira Code&amp;quot;, &amp;quot;Droid Sans Mono&amp;quot;, &amp;quot;monospace&amp;quot;, monospace; font-size: 14px; font-style: normal; font-variant-ligatures: normal; font-variant-caps: normal; font-weight: 400; letter-spacing: normal; orphans: 2; text-align: left; text-indent: 0px; text-transform: none; widows: 2; word-spacing: 0px; -webkit-text-stroke-width: 0px; text-decoration-thickness: initial; text-decoration-style: initial; text-decoration-color: initial;&quot;&gt;&lt;span style=&quot;border-color: rgb(0, 0, 0); color: rgb(204, 204, 204);&quot;&gt;}&lt;span&gt;&amp;nbsp;&lt;/span&gt;&lt;/span&gt;&lt;span style=&quot;border-color: rgb(0, 0, 0); color: rgb(78, 201, 176);&quot;&gt;t_memory&lt;/span&gt;&lt;span style=&quot;border-color: rgb(0, 0, 0); color: rgb(204, 204, 204);&quot;&gt;;&lt;/span&gt;&lt;/div&gt;" style="text;whiteSpace=wrap;html=1;" vertex="1" parent="1">
                    <mxGeometry x="-480" y="103" width="210" height="140" as="geometry"/>
                </mxCell>
                <mxCell id="8" style="edgeStyle=none;html=1;exitX=1.001;exitY=0.624;exitDx=0;exitDy=0;entryX=0.003;entryY=0.146;entryDx=0;entryDy=0;entryPerimeter=0;fontSize=14;exitPerimeter=0;" edge="1" parent="1" source="5" target="7">
                    <mxGeometry relative="1" as="geometry"/>
                </mxCell>
                <mxCell id="5" value="&lt;div style=&quot;border-color: rgb(0, 0, 0); font-size: 14px;&quot;&gt;&lt;font face=&quot;-apple-system, BlinkMacSystemFont, Segoe UI Variable, Segoe UI, system-ui, ui-sans-serif, Helvetica, Arial, sans-serif, Apple Color Emoji, Segoe UI Emoji&quot;&gt;&lt;span style=&quot;border-color: rgb(0, 0, 0); color: rgb(86, 156, 214); font-size: 14px;&quot;&gt;typedef&lt;/span&gt;&lt;span style=&quot;border-color: rgb(0, 0, 0); color: rgb(204, 204, 204); font-size: 14px;&quot;&gt;&lt;span style=&quot;font-size: 14px;&quot;&gt;&amp;nbsp;&lt;/span&gt;&lt;/span&gt;&lt;span style=&quot;border-color: rgb(0, 0, 0); color: rgb(86, 156, 214); font-size: 14px;&quot;&gt;struct&lt;/span&gt;&lt;span style=&quot;border-color: rgb(0, 0, 0); color: rgb(204, 204, 204); font-size: 14px;&quot;&gt;&lt;span style=&quot;font-size: 14px;&quot;&gt;&amp;nbsp;&lt;/span&gt;&lt;/span&gt;&lt;span style=&quot;border-color: rgb(0, 0, 0); color: rgb(78, 201, 176); font-size: 14px;&quot;&gt;s_block&lt;/span&gt;&lt;span style=&quot;border-color: rgb(0, 0, 0); color: rgb(204, 204, 204); font-size: 14px;&quot;&gt;&lt;/span&gt;&lt;/font&gt;&lt;/div&gt;&lt;div style=&quot;border-color: rgb(0, 0, 0); font-size: 14px;&quot;&gt;&lt;span style=&quot;border-color: rgb(0, 0, 0); color: rgb(204, 204, 204); font-size: 14px;&quot;&gt;&lt;font face=&quot;-apple-system, BlinkMacSystemFont, Segoe UI Variable, Segoe UI, system-ui, ui-sans-serif, Helvetica, Arial, sans-serif, Apple Color Emoji, Segoe UI Emoji&quot;&gt;{&lt;/font&gt;&lt;/span&gt;&lt;/div&gt;&lt;div style=&quot;border-color: rgb(0, 0, 0); font-size: 14px;&quot;&gt;&lt;font face=&quot;-apple-system, BlinkMacSystemFont, Segoe UI Variable, Segoe UI, system-ui, ui-sans-serif, Helvetica, Arial, sans-serif, Apple Color Emoji, Segoe UI Emoji&quot;&gt;&lt;span style=&quot;border-color: rgb(0, 0, 0); color: rgb(204, 204, 204); font-size: 14px;&quot;&gt;&lt;/span&gt;&lt;span style=&quot;border-color: rgb(0, 0, 0); color: rgb(86, 156, 214); font-size: 14px;&quot;&gt;&lt;span style=&quot;border-color: rgb(0, 0, 0); font-size: 14px;&quot;&gt;&#9;&lt;/span&gt;&lt;span style=&quot;white-space: pre; font-size: 14px;&quot;&gt;&#9;&lt;/span&gt;void&lt;/span&gt;&lt;span style=&quot;border-color: rgb(0, 0, 0); color: rgb(204, 204, 204); font-size: 14px;&quot;&gt;&lt;span style=&quot;font-size: 14px;&quot;&gt;&amp;nbsp;&lt;/span&gt;&lt;/span&gt;&lt;span style=&quot;border-color: rgb(0, 0, 0); color: rgb(212, 212, 212); font-size: 14px;&quot;&gt;*&lt;/span&gt;&lt;span style=&quot;border-color: rgb(0, 0, 0); color: rgb(156, 220, 254); font-size: 14px;&quot;&gt;content&lt;/span&gt;&lt;span style=&quot;border-color: rgb(0, 0, 0); color: rgb(204, 204, 204); font-size: 14px;&quot;&gt;;&lt;/span&gt;&lt;/font&gt;&lt;/div&gt;&lt;div style=&quot;border-color: rgb(0, 0, 0); font-size: 14px;&quot;&gt;&lt;font face=&quot;-apple-system, BlinkMacSystemFont, Segoe UI Variable, Segoe UI, system-ui, ui-sans-serif, Helvetica, Arial, sans-serif, Apple Color Emoji, Segoe UI Emoji&quot;&gt;&lt;span style=&quot;border-color: rgb(0, 0, 0); color: rgb(204, 204, 204); font-size: 14px;&quot;&gt;&lt;/span&gt;&lt;span style=&quot;border-color: rgb(0, 0, 0); color: rgb(86, 156, 214); font-size: 14px;&quot;&gt;&lt;span style=&quot;border-color: rgb(0, 0, 0); font-size: 14px;&quot;&gt;&#9;&lt;/span&gt;&lt;span style=&quot;white-space: pre; font-size: 14px;&quot;&gt;&#9;&lt;/span&gt;struct&lt;/span&gt;&lt;span style=&quot;border-color: rgb(0, 0, 0); color: rgb(204, 204, 204); font-size: 14px;&quot;&gt;&lt;span style=&quot;font-size: 14px;&quot;&gt;&amp;nbsp;&lt;/span&gt;&lt;/span&gt;&lt;span style=&quot;border-color: rgb(0, 0, 0); color: rgb(78, 201, 176); font-size: 14px;&quot;&gt;s_block&lt;/span&gt;&lt;span style=&quot;border-color: rgb(0, 0, 0); color: rgb(204, 204, 204); font-size: 14px;&quot;&gt;&lt;span style=&quot;font-size: 14px;&quot;&gt;&amp;nbsp;&lt;/span&gt;&lt;/span&gt;&lt;span style=&quot;border-color: rgb(0, 0, 0); color: rgb(212, 212, 212); font-size: 14px;&quot;&gt;*&lt;/span&gt;&lt;span style=&quot;border-color: rgb(0, 0, 0); color: rgb(156, 220, 254); font-size: 14px;&quot;&gt;next&lt;/span&gt;&lt;span style=&quot;border-color: rgb(0, 0, 0); color: rgb(204, 204, 204); font-size: 14px;&quot;&gt;;&lt;/span&gt;&lt;/font&gt;&lt;/div&gt;&lt;div style=&quot;border-color: rgb(0, 0, 0); font-size: 14px;&quot;&gt;&lt;font face=&quot;-apple-system, BlinkMacSystemFont, Segoe UI Variable, Segoe UI, system-ui, ui-sans-serif, Helvetica, Arial, sans-serif, Apple Color Emoji, Segoe UI Emoji&quot;&gt;&lt;span style=&quot;border-color: rgb(0, 0, 0); color: rgb(204, 204, 204); font-size: 14px;&quot;&gt;}&lt;span style=&quot;font-size: 14px;&quot;&gt;&amp;nbsp;&lt;/span&gt;&lt;/span&gt;&lt;span style=&quot;border-color: rgb(0, 0, 0); color: rgb(78, 201, 176); font-size: 14px;&quot;&gt;t_block&lt;/span&gt;&lt;span style=&quot;border-color: rgb(0, 0, 0); color: rgb(204, 204, 204); font-size: 14px;&quot;&gt;;&lt;/span&gt;&lt;/font&gt;&lt;/div&gt;" style="text;whiteSpace=wrap;html=1;fontSize=14;" vertex="1" parent="1">
                    <mxGeometry x="-20" y="140" width="160" height="110" as="geometry"/>
                </mxCell>
                <mxCell id="6" value="" style="group" vertex="1" connectable="0" parent="1">
                    <mxGeometry x="-415" y="255.5" width="120" height="295" as="geometry"/>
                </mxCell>
                <mxCell id="msT65zn4vpUbiCjl3Sjb-25" value="HEAD" style="rounded=1;whiteSpace=wrap;html=1;" parent="6" vertex="1">
                    <mxGeometry width="120" height="60" as="geometry"/>
                </mxCell>
                <mxCell id="msT65zn4vpUbiCjl3Sjb-28" value="FD 3" style="text;html=1;align=center;verticalAlign=middle;whiteSpace=wrap;rounded=0;" parent="6" vertex="1">
                    <mxGeometry x="30" y="105" width="60" height="30" as="geometry"/>
                </mxCell>
                <mxCell id="msT65zn4vpUbiCjl3Sjb-30" style="edgeStyle=orthogonalEdgeStyle;rounded=0;orthogonalLoop=1;jettySize=auto;html=1;entryX=0.5;entryY=0;entryDx=0;entryDy=0;" parent="6" source="msT65zn4vpUbiCjl3Sjb-25" target="msT65zn4vpUbiCjl3Sjb-28" edge="1">
                    <mxGeometry relative="1" as="geometry">
                        <mxPoint x="70" y="100" as="targetPoint"/>
                    </mxGeometry>
                </mxCell>
                <mxCell id="msT65zn4vpUbiCjl3Sjb-29" value="FD 4" style="text;html=1;align=center;verticalAlign=middle;whiteSpace=wrap;rounded=0;" parent="6" vertex="1">
                    <mxGeometry x="30" y="185" width="60" height="30" as="geometry"/>
                </mxCell>
                <mxCell id="msT65zn4vpUbiCjl3Sjb-31" style="edgeStyle=orthogonalEdgeStyle;rounded=0;orthogonalLoop=1;jettySize=auto;html=1;entryX=0.5;entryY=0;entryDx=0;entryDy=0;" parent="6" source="msT65zn4vpUbiCjl3Sjb-28" target="msT65zn4vpUbiCjl3Sjb-29" edge="1">
                    <mxGeometry relative="1" as="geometry"/>
                </mxCell>
                <mxCell id="msT65zn4vpUbiCjl3Sjb-39" value="FD 5" style="text;html=1;align=center;verticalAlign=middle;whiteSpace=wrap;rounded=0;" parent="6" vertex="1">
                    <mxGeometry x="30" y="265" width="60" height="30" as="geometry"/>
                </mxCell>
                <mxCell id="msT65zn4vpUbiCjl3Sjb-40" style="edgeStyle=orthogonalEdgeStyle;rounded=0;orthogonalLoop=1;jettySize=auto;html=1;" parent="6" source="msT65zn4vpUbiCjl3Sjb-29" target="msT65zn4vpUbiCjl3Sjb-39" edge="1">
                    <mxGeometry relative="1" as="geometry"/>
                </mxCell>
                <mxCell id="7" value="&lt;div style=&quot;border-color: rgb(0, 0, 0); font-size: 14px;&quot;&gt;&lt;font face=&quot;-apple-system, BlinkMacSystemFont, Segoe UI Variable, Segoe UI, system-ui, ui-sans-serif, Helvetica, Arial, sans-serif, Apple Color Emoji, Segoe UI Emoji&quot;&gt;&lt;span style=&quot;border-color: rgb(0, 0, 0); color: rgb(86, 156, 214); font-size: 14px;&quot;&gt;typedef&lt;/span&gt;&lt;span style=&quot;border-color: rgb(0, 0, 0); color: rgb(204, 204, 204); font-size: 14px;&quot;&gt;&lt;span style=&quot;font-size: 14px;&quot;&gt;&amp;nbsp;&lt;/span&gt;&lt;/span&gt;&lt;span style=&quot;border-color: rgb(0, 0, 0); color: rgb(86, 156, 214); font-size: 14px;&quot;&gt;struct&lt;/span&gt;&lt;span style=&quot;border-color: rgb(0, 0, 0); color: rgb(204, 204, 204); font-size: 14px;&quot;&gt;&lt;span style=&quot;font-size: 14px;&quot;&gt;&amp;nbsp;&lt;/span&gt;&lt;/span&gt;&lt;span style=&quot;border-color: rgb(0, 0, 0); color: rgb(78, 201, 176); font-size: 14px;&quot;&gt;s_block&lt;/span&gt;&lt;span style=&quot;border-color: rgb(0, 0, 0); color: rgb(204, 204, 204); font-size: 14px;&quot;&gt;&lt;/span&gt;&lt;/font&gt;&lt;/div&gt;&lt;div style=&quot;border-color: rgb(0, 0, 0); font-size: 14px;&quot;&gt;&lt;span style=&quot;border-color: rgb(0, 0, 0); color: rgb(204, 204, 204); font-size: 14px;&quot;&gt;&lt;font face=&quot;-apple-system, BlinkMacSystemFont, Segoe UI Variable, Segoe UI, system-ui, ui-sans-serif, Helvetica, Arial, sans-serif, Apple Color Emoji, Segoe UI Emoji&quot;&gt;{&lt;/font&gt;&lt;/span&gt;&lt;/div&gt;&lt;div style=&quot;border-color: rgb(0, 0, 0); font-size: 14px;&quot;&gt;&lt;font face=&quot;-apple-system, BlinkMacSystemFont, Segoe UI Variable, Segoe UI, system-ui, ui-sans-serif, Helvetica, Arial, sans-serif, Apple Color Emoji, Segoe UI Emoji&quot;&gt;&lt;span style=&quot;border-color: rgb(0, 0, 0); color: rgb(204, 204, 204); font-size: 14px;&quot;&gt;&lt;/span&gt;&lt;span style=&quot;border-color: rgb(0, 0, 0); color: rgb(86, 156, 214); font-size: 14px;&quot;&gt;&lt;span style=&quot;border-color: rgb(0, 0, 0); font-size: 14px;&quot;&gt;&#9;&lt;/span&gt;&lt;span style=&quot;white-space: pre; font-size: 14px;&quot;&gt;&#9;&lt;/span&gt;void&lt;/span&gt;&lt;span style=&quot;border-color: rgb(0, 0, 0); color: rgb(204, 204, 204); font-size: 14px;&quot;&gt;&lt;span style=&quot;font-size: 14px;&quot;&gt;&amp;nbsp;&lt;/span&gt;&lt;/span&gt;&lt;span style=&quot;border-color: rgb(0, 0, 0); color: rgb(212, 212, 212); font-size: 14px;&quot;&gt;*&lt;/span&gt;&lt;span style=&quot;border-color: rgb(0, 0, 0); color: rgb(156, 220, 254); font-size: 14px;&quot;&gt;content&lt;/span&gt;&lt;span style=&quot;border-color: rgb(0, 0, 0); color: rgb(204, 204, 204); font-size: 14px;&quot;&gt;;&lt;/span&gt;&lt;/font&gt;&lt;/div&gt;&lt;div style=&quot;border-color: rgb(0, 0, 0); font-size: 14px;&quot;&gt;&lt;font face=&quot;-apple-system, BlinkMacSystemFont, Segoe UI Variable, Segoe UI, system-ui, ui-sans-serif, Helvetica, Arial, sans-serif, Apple Color Emoji, Segoe UI Emoji&quot;&gt;&lt;span style=&quot;border-color: rgb(0, 0, 0); color: rgb(204, 204, 204); font-size: 14px;&quot;&gt;&lt;/span&gt;&lt;span style=&quot;border-color: rgb(0, 0, 0); color: rgb(86, 156, 214); font-size: 14px;&quot;&gt;&lt;span style=&quot;border-color: rgb(0, 0, 0); font-size: 14px;&quot;&gt;&#9;&lt;/span&gt;&lt;span style=&quot;white-space: pre; font-size: 14px;&quot;&gt;&#9;&lt;/span&gt;struct&lt;/span&gt;&lt;span style=&quot;border-color: rgb(0, 0, 0); color: rgb(204, 204, 204); font-size: 14px;&quot;&gt;&lt;span style=&quot;font-size: 14px;&quot;&gt;&amp;nbsp;&lt;/span&gt;&lt;/span&gt;&lt;span style=&quot;border-color: rgb(0, 0, 0); color: rgb(78, 201, 176); font-size: 14px;&quot;&gt;s_block&lt;/span&gt;&lt;span style=&quot;border-color: rgb(0, 0, 0); color: rgb(204, 204, 204); font-size: 14px;&quot;&gt;&lt;span style=&quot;font-size: 14px;&quot;&gt;&amp;nbsp;&lt;/span&gt;&lt;/span&gt;&lt;span style=&quot;border-color: rgb(0, 0, 0); color: rgb(212, 212, 212); font-size: 14px;&quot;&gt;*&lt;/span&gt;&lt;span style=&quot;border-color: rgb(0, 0, 0); color: rgb(156, 220, 254); font-size: 14px;&quot;&gt;next&lt;/span&gt;&lt;span style=&quot;border-color: rgb(0, 0, 0); color: rgb(204, 204, 204); font-size: 14px;&quot;&gt;;&lt;/span&gt;&lt;/font&gt;&lt;/div&gt;&lt;div style=&quot;border-color: rgb(0, 0, 0); font-size: 14px;&quot;&gt;&lt;font face=&quot;-apple-system, BlinkMacSystemFont, Segoe UI Variable, Segoe UI, system-ui, ui-sans-serif, Helvetica, Arial, sans-serif, Apple Color Emoji, Segoe UI Emoji&quot;&gt;&lt;span style=&quot;border-color: rgb(0, 0, 0); color: rgb(204, 204, 204); font-size: 14px;&quot;&gt;}&lt;span style=&quot;font-size: 14px;&quot;&gt;&amp;nbsp;&lt;/span&gt;&lt;/span&gt;&lt;span style=&quot;border-color: rgb(0, 0, 0); color: rgb(78, 201, 176); font-size: 14px;&quot;&gt;t_block&lt;/span&gt;&lt;span style=&quot;border-color: rgb(0, 0, 0); color: rgb(204, 204, 204); font-size: 14px;&quot;&gt;;&lt;/span&gt;&lt;/font&gt;&lt;/div&gt;" style="text;whiteSpace=wrap;html=1;fontSize=14;" vertex="1" parent="1">
                    <mxGeometry x="180" y="140" width="210" height="110" as="geometry"/>
                </mxCell>
                <mxCell id="13" value="&lt;div style=&quot;border-color: rgb(0, 0, 0); font-size: 14px;&quot;&gt;&lt;font face=&quot;-apple-system, BlinkMacSystemFont, Segoe UI Variable, Segoe UI, system-ui, ui-sans-serif, Helvetica, Arial, sans-serif, Apple Color Emoji, Segoe UI Emoji&quot;&gt;&lt;span style=&quot;border-color: rgb(0, 0, 0); color: rgb(86, 156, 214); font-size: 14px;&quot;&gt;typedef&lt;/span&gt;&lt;span style=&quot;border-color: rgb(0, 0, 0); color: rgb(204, 204, 204); font-size: 14px;&quot;&gt;&lt;span style=&quot;font-size: 14px;&quot;&gt;&amp;nbsp;&lt;/span&gt;&lt;/span&gt;&lt;span style=&quot;border-color: rgb(0, 0, 0); color: rgb(86, 156, 214); font-size: 14px;&quot;&gt;struct&lt;/span&gt;&lt;span style=&quot;border-color: rgb(0, 0, 0); color: rgb(204, 204, 204); font-size: 14px;&quot;&gt;&lt;span style=&quot;font-size: 14px;&quot;&gt;&amp;nbsp;&lt;/span&gt;&lt;/span&gt;&lt;span style=&quot;border-color: rgb(0, 0, 0); color: rgb(78, 201, 176); font-size: 14px;&quot;&gt;s_block&lt;/span&gt;&lt;span style=&quot;border-color: rgb(0, 0, 0); color: rgb(204, 204, 204); font-size: 14px;&quot;&gt;&lt;/span&gt;&lt;/font&gt;&lt;/div&gt;&lt;div style=&quot;border-color: rgb(0, 0, 0); font-size: 14px;&quot;&gt;&lt;span style=&quot;border-color: rgb(0, 0, 0); color: rgb(204, 204, 204); font-size: 14px;&quot;&gt;&lt;font face=&quot;-apple-system, BlinkMacSystemFont, Segoe UI Variable, Segoe UI, system-ui, ui-sans-serif, Helvetica, Arial, sans-serif, Apple Color Emoji, Segoe UI Emoji&quot;&gt;{&lt;/font&gt;&lt;/span&gt;&lt;/div&gt;&lt;div style=&quot;border-color: rgb(0, 0, 0); font-size: 14px;&quot;&gt;&lt;font face=&quot;-apple-system, BlinkMacSystemFont, Segoe UI Variable, Segoe UI, system-ui, ui-sans-serif, Helvetica, Arial, sans-serif, Apple Color Emoji, Segoe UI Emoji&quot;&gt;&lt;span style=&quot;border-color: rgb(0, 0, 0); color: rgb(204, 204, 204); font-size: 14px;&quot;&gt;&lt;/span&gt;&lt;span style=&quot;border-color: rgb(0, 0, 0); color: rgb(86, 156, 214); font-size: 14px;&quot;&gt;&lt;span style=&quot;border-color: rgb(0, 0, 0); font-size: 14px;&quot;&gt;&#9;&lt;/span&gt;&lt;span style=&quot;white-space: pre; font-size: 14px;&quot;&gt;&#9;&lt;/span&gt;void&lt;/span&gt;&lt;span style=&quot;border-color: rgb(0, 0, 0); color: rgb(204, 204, 204); font-size: 14px;&quot;&gt;&lt;span style=&quot;font-size: 14px;&quot;&gt;&amp;nbsp;&lt;/span&gt;&lt;/span&gt;&lt;span style=&quot;border-color: rgb(0, 0, 0); color: rgb(212, 212, 212); font-size: 14px;&quot;&gt;*&lt;/span&gt;&lt;span style=&quot;border-color: rgb(0, 0, 0); color: rgb(156, 220, 254); font-size: 14px;&quot;&gt;content&lt;/span&gt;&lt;span style=&quot;border-color: rgb(0, 0, 0); color: rgb(204, 204, 204); font-size: 14px;&quot;&gt;;&lt;/span&gt;&lt;/font&gt;&lt;/div&gt;&lt;div style=&quot;border-color: rgb(0, 0, 0); font-size: 14px;&quot;&gt;&lt;font face=&quot;-apple-system, BlinkMacSystemFont, Segoe UI Variable, Segoe UI, system-ui, ui-sans-serif, Helvetica, Arial, sans-serif, Apple Color Emoji, Segoe UI Emoji&quot;&gt;&lt;span style=&quot;border-color: rgb(0, 0, 0); color: rgb(204, 204, 204); font-size: 14px;&quot;&gt;&lt;/span&gt;&lt;span style=&quot;border-color: rgb(0, 0, 0); color: rgb(86, 156, 214); font-size: 14px;&quot;&gt;&lt;span style=&quot;border-color: rgb(0, 0, 0); font-size: 14px;&quot;&gt;&#9;&lt;/span&gt;&lt;span style=&quot;white-space: pre; font-size: 14px;&quot;&gt;&#9;&lt;/span&gt;struct&lt;/span&gt;&lt;span style=&quot;border-color: rgb(0, 0, 0); color: rgb(204, 204, 204); font-size: 14px;&quot;&gt;&lt;span style=&quot;font-size: 14px;&quot;&gt;&amp;nbsp;&lt;/span&gt;&lt;/span&gt;&lt;span style=&quot;border-color: rgb(0, 0, 0); color: rgb(78, 201, 176); font-size: 14px;&quot;&gt;s_block&lt;/span&gt;&lt;span style=&quot;border-color: rgb(0, 0, 0); color: rgb(204, 204, 204); font-size: 14px;&quot;&gt;&lt;span style=&quot;font-size: 14px;&quot;&gt;&amp;nbsp;&lt;/span&gt;&lt;/span&gt;&lt;span style=&quot;border-color: rgb(0, 0, 0); color: rgb(212, 212, 212); font-size: 14px;&quot;&gt;*&lt;/span&gt;&lt;span style=&quot;border-color: rgb(0, 0, 0); color: rgb(156, 220, 254); font-size: 14px;&quot;&gt;next&lt;/span&gt;&lt;span style=&quot;border-color: rgb(0, 0, 0); color: rgb(204, 204, 204); font-size: 14px;&quot;&gt;;&lt;/span&gt;&lt;/font&gt;&lt;/div&gt;&lt;div style=&quot;border-color: rgb(0, 0, 0); font-size: 14px;&quot;&gt;&lt;font face=&quot;-apple-system, BlinkMacSystemFont, Segoe UI Variable, Segoe UI, system-ui, ui-sans-serif, Helvetica, Arial, sans-serif, Apple Color Emoji, Segoe UI Emoji&quot;&gt;&lt;span style=&quot;border-color: rgb(0, 0, 0); color: rgb(204, 204, 204); font-size: 14px;&quot;&gt;}&lt;span style=&quot;font-size: 14px;&quot;&gt;&amp;nbsp;&lt;/span&gt;&lt;/span&gt;&lt;span style=&quot;border-color: rgb(0, 0, 0); color: rgb(78, 201, 176); font-size: 14px;&quot;&gt;t_block&lt;/span&gt;&lt;span style=&quot;border-color: rgb(0, 0, 0); color: rgb(204, 204, 204); font-size: 14px;&quot;&gt;;&lt;/span&gt;&lt;/font&gt;&lt;/div&gt;" style="text;whiteSpace=wrap;html=1;fontSize=14;" vertex="1" parent="1">
                    <mxGeometry x="-150" y="355" width="160" height="110" as="geometry"/>
                </mxCell>
            </root>
        </mxGraphModel>
    </diagram>
</mxfile>